<?xml version="1.0" standalone="no"?>
<!DOCTYPE svg PUBLIC "-//W3C//DTD SVG 20010904//EN"
 "http://www.w3.org/TR/2001/REC-SVG-20010904/DTD/svg10.dtd">
<svg version="1.0" xmlns="http://www.w3.org/2000/svg"
 width="512.000000pt" height="512.000000pt" viewBox="0 0 512.000000 512.000000"
 preserveAspectRatio="xMidYMid meet">
<metadata>
Created by potrace 1.11, written by Peter Selinger 2001-2013
</metadata>
<g transform="translate(0.000000,512.000000) scale(0.100000,-0.100000)"
fill="#000000" stroke="none">
<path d="M1373 5100 c-210 -55 -370 -221 -419 -433 -12 -48 -15 -144 -15 -423
0 -305 -2 -364 -14 -374 -27 -22 -55 -77 -64 -124 -9 -46 18 -242 49 -356 16
-61 82 -126 135 -135 64 -11 65 -11 66 -62 2 -147 62 -302 176 -454 57 -75
180 -199 241 -241 23 -16 42 -37 43 -46 2 -54 1 -105 -5 -136 -5 -28 -14 -37
-46 -50 -21 -8 -49 -17 -62 -20 -13 -2 -72 -19 -133 -36 l-110 -32 -311 -2
-311 -1 -49 -30 c-67 -42 -103 -98 -110 -174 -4 -38 -12 -62 -21 -65 -61 -24
-198 -140 -261 -222 -40 -52 -96 -167 -110 -224 -6 -25 -14 -56 -17 -70 -7
-29 -18 -550 -19 -925 -1 -255 -1 -261 23 -305 32 -61 67 -97 126 -128 l50
-27 1855 0 1855 0 43 23 c57 31 105 77 133 132 23 44 24 51 23 280 -1 337 -13
888 -19 935 -20 145 -95 289 -208 398 -49 47 -150 119 -199 143 -29 13 -38 24
-38 42 0 75 -52 157 -123 194 -40 21 -55 22 -327 23 -296 2 -291 1 -458 51
-29 8 -61 17 -70 19 -107 20 -124 38 -126 137 -3 80 -2 82 45 117 137 100 292
288 353 427 l17 40 245 0 c225 0 244 -2 239 -17 -3 -10 -8 -26 -10 -37 -2 -11
-18 -75 -35 -143 -43 -168 -46 -206 -21 -246 49 -78 127 -89 213 -31 29 20 64
45 78 57 14 11 81 63 150 116 69 52 185 141 258 198 l132 102 298 1 c244 1
307 4 353 17 116 34 212 135 243 254 18 73 15 1191 -4 1253 -31 104 -111 189
-218 235 -45 19 -75 19 -892 21 -696 2 -846 4 -852 16 -88 171 -192 269 -349
326 l-74 27 -635 2 c-595 2 -640 1 -707 -17z"/>
</g>
</svg>
